<?xml version="1.0" encoding="UTF-8"?>
<svg version="1.1" xmlns="http://www.w3.org/2000/svg" width="512" height="512">
<path d="M0 0 C0.99868909 -0.00297112 1.99737819 -0.00594224 3.02633059 -0.0090034 C6.35908455 -0.01764635 9.69180239 -0.01919493 13.02456665 -0.02069092 C15.42015662 -0.02532233 17.81574585 -0.03034742 20.21133423 -0.03573608 C26.71186048 -0.04883371 33.21237985 -0.05533771 39.71291685 -0.05974674 C43.78023756 -0.06251761 47.84755591 -0.06675656 51.91487503 -0.07125092 C63.19913521 -0.08343966 74.48339352 -0.09373856 85.76766014 -0.09712601 C86.48888342 -0.09734557 87.2101067 -0.09756514 87.95318524 -0.09779136 C88.67603937 -0.09800964 89.39889351 -0.09822791 90.14365232 -0.09845281 C91.60818887 -0.09889626 93.07272542 -0.09934282 94.53726196 -0.09979248 C95.2637076 -0.10001391 95.99015323 -0.10023534 96.73861237 -0.10046348 C108.48858398 -0.10440477 120.23849332 -0.12184006 131.98844092 -0.145152 C144.08217627 -0.16895013 156.17588049 -0.18133175 168.26963961 -0.18249393 C175.04751456 -0.18340615 181.82530843 -0.18904286 188.60316086 -0.20731354 C194.98736375 -0.22388814 201.37141365 -0.2259044 207.75563049 -0.21717453 C210.08628883 -0.21640908 212.41695571 -0.22068117 214.74759293 -0.23063278 C258.07962913 -0.40465983 296.27158717 14.14096113 327.37026978 44.66778564 C335.82133285 53.25263113 342.72223089 62.77794547 348.81997681 73.14044189 C349.16657349 73.72519287 349.51317017 74.30994385 349.87026978 74.91241455 C362.01010239 95.68527045 368.98307225 119.22610484 368.9604187 143.32046509 C368.96487538 144.81849873 368.96487538 144.81849873 368.9694221 146.34679568 C368.97806505 149.67954963 368.97961363 153.01226748 368.98110962 156.34503174 C368.98574103 158.7406217 368.99076612 161.13621093 368.99615479 163.53179932 C369.00925242 170.03232557 369.01575642 176.53284494 369.02016544 183.03338194 C369.02293631 187.10070264 369.02717527 191.168021 369.03166962 195.23534012 C369.04385836 206.5196003 369.05415726 217.80385861 369.05754471 229.08812523 C369.05776427 229.80934851 369.05798384 230.53057179 369.05821006 231.27365033 C369.05842834 231.99650446 369.05864662 232.7193586 369.05887151 233.46411741 C369.05931496 234.92865396 369.05976152 236.3931905 369.06021118 237.85772705 C369.06043261 238.58417268 369.06065404 239.31061832 369.06088218 240.05907746 C369.06482347 251.80904907 369.08225876 263.55895841 369.1055707 275.308906 C369.12936883 287.40264135 369.14175045 299.49634558 369.14291263 311.5901047 C369.14382485 318.36797965 369.14946156 325.14577352 369.16773224 331.92362595 C369.18430684 338.30782883 369.1863231 344.69187874 369.17759323 351.07609558 C369.17682778 353.40675392 369.18109987 355.7374208 369.19105148 358.06805801 C369.36507853 401.40009422 354.81945758 439.59205226 324.29263306 470.69073486 C315.70778757 479.14179794 306.18247323 486.04269597 295.81997681 492.14044189 C295.23522583 492.48703857 294.65047485 492.83363525 294.04800415 493.19073486 C273.27514825 505.33056748 249.73431386 512.30353734 225.63995361 512.28088379 C224.64126452 512.28385491 223.64257542 512.28682603 222.61362302 512.28988719 C219.28086907 512.29853014 215.94815122 512.30007872 212.61538696 512.30157471 C210.219797 512.30620611 207.82420777 512.31123121 205.42861938 512.31661987 C198.92809313 512.3297175 192.42757376 512.3362215 185.92703676 512.34063053 C181.85971606 512.3434014 177.7923977 512.34764035 173.72507858 512.3521347 C162.4408184 512.36432345 151.15656009 512.37462235 139.87229347 512.3780098 C138.79045855 512.37833915 138.79045855 512.37833915 137.68676838 512.37867515 C136.96391424 512.37889343 136.2410601 512.3791117 135.49630129 512.3793366 C134.03176474 512.37978005 132.5672282 512.38022661 131.10269165 512.38067627 C130.37624602 512.3808977 129.64980038 512.38111913 128.90134124 512.38134727 C117.15136963 512.38528855 105.40146029 512.40272385 93.6515127 512.42603579 C81.55777735 512.44983392 69.46407312 512.46221554 57.370314 512.46337771 C50.59243905 512.46428994 43.81464518 512.46992664 37.03679276 512.48819733 C30.65258987 512.50477193 24.26853996 512.50678819 17.88432312 512.49805832 C15.55366478 512.49729287 13.2229979 512.50156496 10.89236069 512.51151657 C-32.43967552 512.68554362 -70.63163355 498.13992266 -101.73031616 467.61309814 C-110.18137924 459.02825266 -117.08227727 449.50293832 -123.18002319 439.14044189 C-123.52661987 438.55569092 -123.87321655 437.97093994 -124.23031616 437.36846924 C-139.15366328 411.83265263 -143.96888288 384.22270078 -143.82699585 354.93341064 C-143.83379502 352.5269607 -143.84271086 350.12051597 -143.85354614 347.71408081 C-143.87607264 341.2594098 -143.86761464 334.80514453 -143.85165071 328.35046768 C-143.84267249 324.30057544 -143.84447118 320.25073325 -143.84910202 316.20083618 C-143.84986819 315.52315191 -143.85063435 314.84546765 -143.85142373 314.14724749 C-143.85302277 312.7694531 -143.85464384 311.39165874 -143.85628669 310.0138644 C-143.87045789 297.17115175 -143.8542884 284.32861914 -143.82728486 271.48593605 C-143.80495393 260.5272569 -143.80883651 249.56884283 -143.83187866 238.61016846 C-143.85879081 225.80542442 -143.86908541 213.00083715 -143.85381734 200.19606876 C-143.85222502 198.82406174 -143.85065316 197.45205468 -143.84910202 196.08004761 C-143.84833064 195.40544076 -143.84755927 194.73083391 -143.84676451 194.03578442 C-143.84249339 189.33985864 -143.8498857 184.64406472 -143.86149979 179.94815063 C-143.87611257 173.59803788 -143.86562045 167.2484178 -143.8370285 160.89835739 C-143.83050645 158.58998806 -143.83215941 156.2815761 -143.84334183 153.97322464 C-144.02984188 111.50758545 -129.37532516 73.193066 -99.75082397 42.66778564 C-73.70742027 16.77431011 -36.88675524 -0.03468097 0 0 Z " fill="#0D47A1" transform="translate(143.18002319335938,-0.14044189453125)"/>
<path d="M0 0 C4.97329283 2.60389195 8.61708704 6.51280573 12.51656723 10.48998451 C13.43819153 11.40591377 14.35981583 12.32184303 15.30936813 13.26552773 C17.81661048 15.75833975 20.30487851 18.26931159 22.78956366 20.78458238 C25.40289877 23.42444657 28.03221975 26.04830406 30.65942001 28.67435646 C35.06562726 33.083365 39.46011079 37.50378565 43.84713364 41.93187904 C48.90867366 47.04063044 53.98575874 52.13349639 59.07205474 57.21759349 C64.50488247 62.64839021 69.92620808 68.09055909 75.34423685 73.53611541 C76.89899573 75.09724695 78.45585639 76.65625554 80.01320648 78.21480179 C82.92054558 81.12573211 85.81487938 84.04927111 88.70797348 86.97435951 C89.56620209 87.83122856 90.42443069 88.68809761 91.30866623 89.57093239 C97.93247066 96.30196373 102.73547013 102.32044201 103.03658676 112.05126381 C102.92928002 118.67501638 101.3172003 124.43377704 96.92330551 129.50438881 C90.23765083 135.6837512 84.08141632 137.72202118 75.07955551 138.02001381 C64.44336144 136.13793989 57.48949676 128.87105221 50.24752426 121.43798256 C49.18674938 120.36786081 48.12484923 119.29885344 47.06188583 118.23090553 C44.29213083 115.44222818 41.53773629 112.6388629 38.78646469 109.83196449 C35.96635121 106.96033697 33.13169951 104.10313704 30.29830551 101.24462318 C24.75938619 95.65237744 19.2366399 90.0445013 13.72408676 84.42626381 C13.7226202 85.10341407 13.72115364 85.78056433 13.71964264 86.47823429 C13.68253756 102.9799907 13.62347401 119.4815091 13.54018402 135.98309422 C13.50043058 143.96325885 13.4680194 151.94332539 13.45309067 159.92357826 C13.44005491 166.88185958 13.41304143 173.83992475 13.3694737 180.79808432 C13.34690181 184.47999835 13.33117349 188.16164621 13.33220291 191.84363556 C13.33309156 195.96124461 13.30276447 200.07807213 13.2699852 204.19555092 C13.27753075 206.01248703 13.27753075 206.01248703 13.28522873 207.86612892 C13.17234416 217.04642668 11.32195682 224.69349307 4.72408676 231.42626381 C-1.2382058 235.45649382 -7.52585589 238.44347783 -14.82669449 237.94970131 C-22.44199874 236.32218812 -29.15069124 232.23102688 -33.42435074 225.66063881 C-36.21170725 220.95573917 -37.39840572 217.43133199 -37.43413162 212.01630592 C-37.44392044 210.89309944 -37.45370926 209.76989296 -37.46379471 208.61264992 C-37.46955017 207.37978752 -37.47530563 206.14692513 -37.4812355 204.87670326 C-37.4911351 203.5790403 -37.5010347 202.28137733 -37.51123428 200.94439125 C-37.538279 197.38478479 -37.5592909 193.82516508 -37.57923627 190.2655127 C-37.60109849 186.54589372 -37.62848603 182.82631556 -37.65529251 179.10672951 C-37.7052162 172.06261586 -37.75015623 165.01847954 -37.79331487 157.97432154 C-37.84269001 149.9550306 -37.89760712 141.93578062 -37.95299447 133.9165293 C-38.06680955 117.4198119 -38.17364963 100.92305695 -38.27591324 84.42626381 C-38.859496 85.01872902 -39.44307877 85.61119423 -40.04434586 86.22161293 C-45.56496756 91.82261901 -51.09533985 97.41377593 -56.63668442 102.99428368 C-59.48472714 105.86313793 -62.32895508 108.73556549 -65.16458511 111.6166935 C-67.90490301 114.40069913 -70.65507922 117.17461521 -73.41215897 119.94201851 C-74.458574 120.9957839 -75.50148197 122.05304471 -76.54066849 123.11393929 C-84.28147283 131.00984435 -91.30326343 137.41167867 -102.90091324 137.80126381 C-110.10385545 137.72297096 -114.75393011 135.60840646 -120.05716324 130.81688881 C-126.25573935 124.19292022 -127.57664297 117.52499239 -127.86966324 108.64892006 C-126.18688653 99.51542805 -119.59665798 93.16447076 -113.23807144 86.85497475 C-112.3365686 85.94485634 -111.43506577 85.03473793 -110.50624466 84.09704018 C-108.0524797 81.62093478 -105.58633124 79.15753624 -103.11692452 76.69704151 C-101.04814855 74.63340626 -98.98564661 72.56355609 -96.92307633 70.49372125 C-92.05334736 65.60704212 -87.17348773 60.73065024 -82.28689957 55.86083412 C-77.26372979 50.85458393 -72.25715837 45.8321707 -67.25862247 40.80133414 C-62.94905558 36.46498809 -58.62975173 32.13851383 -54.3025443 27.81977105 C-51.72583155 25.24796289 -49.15273016 22.6728051 -46.58880424 20.08824348 C-43.72690943 17.20441753 -40.84492256 14.34149786 -37.96072769 11.47997475 C-37.12556625 10.63312111 -36.29040482 9.78626747 -35.42993546 8.9137516 C-24.7407095 -1.60585767 -14.31043396 -5.85899118 0 0 Z " fill="#63B4F5" transform="translate(268.2759132385254,98.5737361907959)"/>
<path d="M0 0 C0.85238776 -0.00467997 1.70477552 -0.00935994 2.58299321 -0.01418173 C5.42635408 -0.0261045 8.26923054 -0.01668504 11.1125946 -0.00723267 C13.15649191 -0.01129966 15.20038701 -0.01664226 17.24427795 -0.02316284 C22.78780143 -0.03682953 28.33115724 -0.0315397 33.87468362 -0.02202559 C39.68227857 -0.0144226 45.48985931 -0.02147667 51.29745483 -0.02618408 C61.05308097 -0.03164107 70.80863897 -0.02445285 80.56425476 -0.01016235 C91.83013992 0.00615028 103.09586208 0.00088544 114.36174327 -0.01564157 C124.04350339 -0.02927442 133.72521455 -0.03116688 143.40698117 -0.02332556 C149.1852712 -0.01865718 154.96348473 -0.01800096 160.74176979 -0.02793503 C166.17796925 -0.03662806 171.61395959 -0.03054002 177.05013657 -0.01325226 C179.04067196 -0.00929931 181.03122507 -0.01040094 183.02175331 -0.01704025 C207.83012431 -0.09213073 207.83012431 -0.09213073 215.7519989 7.52938843 C220.80860982 13.61272238 223.11547131 19.79255613 222.7129364 27.70907593 C221.61047774 34.69131409 218.30324813 40.48267753 213.2910614 45.38095093 C206.91905905 49.27911707 201.42926492 50.53025187 193.98721313 50.53485107 C192.70150739 50.54142446 192.70150739 50.54142446 191.38982779 50.54813063 C188.50656166 50.5615263 185.62332611 50.56769928 182.74003601 50.57382202 C180.67702598 50.58172251 178.61401732 50.58999142 176.55101013 50.59860229 C169.76515525 50.62483291 162.97929417 50.64013294 156.19340515 50.65438843 C153.85740721 50.65974805 151.52140931 50.66512556 149.18541145 50.67052078 C139.46689228 50.69215278 129.74837477 50.71088867 120.02983761 50.72214317 C106.10379431 50.73837606 92.17803031 50.77153446 78.2520923 50.82854402 C68.46002446 50.86726253 58.66803126 50.88677827 48.87588888 50.89206374 C43.02813431 50.89571509 37.18067756 50.90771364 31.33300591 50.94016647 C25.82785392 50.97027965 20.32317946 50.97654708 14.81796265 50.96478271 C12.80160808 50.96456224 10.78523116 50.97284543 8.76895332 50.99043655 C-12.35369402 51.16463223 -12.35369402 51.16463223 -20.58752537 43.67131615 C-25.76913476 38.3436165 -27.81674547 32.33376997 -28.2089386 25.00595093 C-27.9908401 18.16903705 -25.60359219 12.64001459 -21.06440735 7.52938843 C-14.70732911 1.70326254 -8.41392865 -0.07163818 0 0 Z " fill="#1D87E4" transform="translate(158.7089385986328,365.6190490722656)"/>
</svg>